<?xml version="1.0" encoding="UTF-8" standalone="no"?><!DOCTYPE svg PUBLIC "-//W3C//DTD SVG 1.1//EN" "http://www.w3.org/Graphics/SVG/1.1/DTD/svg11.dtd"><svg width="100%" height="100%" viewBox="0 0 34 34" version="1.1" xmlns="http://www.w3.org/2000/svg" xmlns:xlink="http://www.w3.org/1999/xlink" xml:space="preserve" style="fill-rule:evenodd;clip-rule:evenodd;stroke-linejoin:round;stroke-miterlimit:1.41421;"><rect x="0" y="-34" width="34" height="34.005" style="fill:#00549f;"/><path d="M34,16.992c0,-9.382 -7.617,-17 -17,-17c-9.383,0 -17,7.618 -17,17l0,0.006c0,9.382 7.617,17 17,17c9.383,0 17,-7.618 17,-17l0,-0.006Z" style="fill:#00549f;"/><clipPath id="_clip1"><path d="M34,16.992c0,-9.382 -7.617,-17 -17,-17c-9.383,0 -17,7.618 -17,17l0,0.006c0,9.382 7.617,17 17,17c9.383,0 17,-7.618 17,-17l0,-0.006Z"/></clipPath><g clip-path="url(#_clip1)"><path id="path6610" d="M14.97,24.591l3.155,0l0,-7.59l2.129,0l0.276,-2.682l-2.405,0l0,-1.576c0,-0.593 0.393,-0.732 0.669,-0.732l1.697,0l0,-2.601l-2.337,-0.011c-2.594,0 -3.184,1.942 -3.184,3.185l0,1.735l-1.5,0l0,2.682l1.5,0l0,7.59Z" style="fill:#fff;fill-rule:nonzero;"/></g></svg>