<?xml version="1.0" encoding="UTF-8" standalone="no"?><!DOCTYPE svg PUBLIC "-//W3C//DTD SVG 1.1//EN" "http://www.w3.org/Graphics/SVG/1.1/DTD/svg11.dtd"><svg width="100%" height="100%" viewBox="0 0 34 34" version="1.1" xmlns="http://www.w3.org/2000/svg" xmlns:xlink="http://www.w3.org/1999/xlink" xml:space="preserve" style="fill-rule:evenodd;clip-rule:evenodd;stroke-linejoin:round;stroke-miterlimit:1.41421;"><rect x="0" y="-34" width="34" height="34.005" style="fill:#2672ae;"/><path d="M34,16.992c0,-9.382 -7.617,-17 -17,-17c-9.383,0 -17,7.618 -17,17l0,0.006c0,9.382 7.617,17 17,17c9.383,0 17,-7.618 17,-17l0,-0.006Z" style="fill:#2672ae;"/><clipPath id="_clip1"><path d="M34,16.992c0,-9.382 -7.617,-17 -17,-17c-9.383,0 -17,7.618 -17,17l0,0.006c0,9.382 7.617,17 17,17c9.383,0 17,-7.618 17,-17l0,-0.006Z"/></clipPath><g clip-path="url(#_clip1)"><g id="g4251"><rect id="path6788" x="9.655" y="14.461" width="3.15" height="10.13" style="fill:#fff;fill-rule:nonzero;"/><path id="path6792" d="M11.229,13.076c1.007,0 1.825,-0.818 1.825,-1.826c0,-1.007 -0.818,-1.825 -1.825,-1.825c-1.009,0 -1.825,0.818 -1.825,1.825c0,1.008 0.816,1.826 1.825,1.826" style="fill:#fff;fill-rule:nonzero;"/><path id="path6796" d="M24.596,19.034c0,-2.728 -0.589,-4.825 -3.775,-4.825c-1.531,0 -2.559,0.84 -2.98,1.636l-0.043,0l0,-1.384l-3.02,0l0,10.13l3.148,0l0,-5.012c0,-1.321 0.25,-2.601 1.888,-2.601c1.613,0 1.636,1.511 1.636,2.686l0,4.927l3.146,0l0,-5.557Z" style="fill:#fff;fill-rule:nonzero;"/></g></g></svg>



