<?xml version="1.0" encoding="UTF-8" standalone="no"?><!DOCTYPE svg PUBLIC "-//W3C//DTD SVG 1.1//EN" "http://www.w3.org/Graphics/SVG/1.1/DTD/svg11.dtd"><svg width="100%" height="100%" viewBox="0 0 34 34" version="1.1" xmlns="http://www.w3.org/2000/svg" xmlns:xlink="http://www.w3.org/1999/xlink" xml:space="preserve" style="fill-rule:evenodd;clip-rule:evenodd;stroke-linejoin:round;stroke-miterlimit:1.41421;"><rect x="0" y="-33.987" width="34" height="34.005" style="fill:#00aff0;"/><path d="M34,17.005c0,-9.382 -7.617,-17 -17,-17c-9.383,0 -17,7.618 -17,17l0,0.005c0,9.383 7.617,17 17,17c9.383,0 17,-7.617 17,-17l0,-0.005Z" style="fill:#00aff0;"/><clipPath id="_clip1"><path d="M34,17.005c0,-9.382 -7.617,-17 -17,-17c-9.383,0 -17,7.618 -17,17l0,0.005c0,9.383 7.617,17 17,17c9.383,0 17,-7.617 17,-17l0,-0.005Z"/></clipPath><g clip-path="url(#_clip1)"><path id="path6616" d="M20.744,20.502c-0.331,0.467 -0.819,0.837 -1.452,1.101c-0.627,0.26 -1.377,0.392 -2.231,0.392c-1.027,0 -1.887,-0.181 -2.559,-0.537c-0.479,-0.259 -0.876,-0.609 -1.177,-1.043c-0.303,-0.437 -0.457,-0.872 -0.457,-1.291c0,-0.262 0.101,-0.489 0.299,-0.674c0.195,-0.184 0.446,-0.277 0.746,-0.277c0.245,0 0.456,0.073 0.629,0.217c0.164,0.141 0.305,0.347 0.418,0.613c0.127,0.291 0.265,0.536 0.41,0.728c0.141,0.185 0.342,0.34 0.6,0.462c0.259,0.123 0.608,0.186 1.037,0.186c0.591,0 1.075,-0.126 1.439,-0.375c0.356,-0.243 0.528,-0.535 0.528,-0.892c0,-0.282 -0.089,-0.503 -0.275,-0.677c-0.195,-0.182 -0.452,-0.323 -0.762,-0.42c-0.325,-0.101 -0.766,-0.211 -1.311,-0.326c-0.742,-0.158 -1.371,-0.347 -1.872,-0.559c-0.512,-0.218 -0.925,-0.521 -1.227,-0.899c-0.307,-0.384 -0.463,-0.865 -0.463,-1.432c0,-0.539 0.163,-1.026 0.486,-1.445c0.318,-0.416 0.786,-0.741 1.386,-0.962c0.593,-0.22 1.299,-0.331 2.097,-0.331c0.638,0 1.197,0.075 1.666,0.219c0.471,0.147 0.868,0.345 1.18,0.589c0.315,0.245 0.549,0.507 0.694,0.78c0.149,0.276 0.224,0.55 0.224,0.815c0,0.255 -0.099,0.487 -0.293,0.69c-0.195,0.203 -0.443,0.306 -0.734,0.306c-0.264,0 -0.472,-0.064 -0.615,-0.191c-0.133,-0.119 -0.273,-0.304 -0.426,-0.569c-0.179,-0.337 -0.395,-0.604 -0.641,-0.793c-0.241,-0.183 -0.642,-0.275 -1.194,-0.275c-0.511,0 -0.929,0.103 -1.237,0.306c-0.298,0.196 -0.443,0.419 -0.443,0.684c0,0.163 0.047,0.299 0.143,0.417c0.101,0.124 0.245,0.232 0.426,0.323c0.188,0.094 0.381,0.169 0.574,0.222c0.199,0.056 0.533,0.138 0.989,0.243c0.578,0.125 1.11,0.263 1.579,0.414c0.477,0.153 0.887,0.339 1.222,0.558c0.343,0.223 0.613,0.508 0.806,0.85c0.193,0.343 0.291,0.767 0.291,1.259c0,0.588 -0.169,1.125 -0.5,1.594m3.479,-3.415c0,-3.944 -3.198,-7.143 -7.143,-7.143c-0.417,0 -0.824,0.036 -1.222,0.104c-0.639,-0.402 -1.393,-0.636 -2.204,-0.636c-2.288,0 -4.143,1.856 -4.143,4.144c0,0.765 0.208,1.48 0.569,2.095c-0.095,0.464 -0.144,0.944 -0.144,1.436c0,3.946 3.198,7.144 7.144,7.144c0.446,0 0.884,-0.041 1.307,-0.119c0.584,0.313 1.251,0.491 1.959,0.491c2.288,0 4.143,-1.854 4.143,-4.143c0,-0.66 -0.155,-1.284 -0.43,-1.839c0.108,-0.496 0.164,-1.007 0.164,-1.534" style="fill:#fff;fill-rule:nonzero;"/></g></svg>