<?xml version="1.0" encoding="UTF-8" standalone="no"?><!DOCTYPE svg PUBLIC "-//W3C//DTD SVG 1.1//EN" "http://www.w3.org/Graphics/SVG/1.1/DTD/svg11.dtd"><svg width="100%" height="100%" viewBox="0 0 34 34" version="1.1" xmlns="http://www.w3.org/2000/svg" xmlns:xlink="http://www.w3.org/1999/xlink" xml:space="preserve" style="fill-rule:evenodd;clip-rule:evenodd;stroke-linejoin:round;stroke-miterlimit:1.41421;"><rect x="0" y="-34" width="34" height="34.005" style="fill:#1da1f2;"/><path d="M34,16.992c0,-9.382 -7.617,-17 -17,-17c-9.383,0 -17,7.618 -17,17l0,0.006c0,9.382 7.617,17 17,17c9.383,0 17,-7.618 17,-17l0,-0.006Z" style="fill:#1da1f2;"/><clipPath id="_clip1"><path d="M34,16.992c0,-9.382 -7.617,-17 -17,-17c-9.383,0 -17,7.618 -17,17l0,0.006c0,9.382 7.617,17 17,17c9.383,0 17,-7.618 17,-17l0,-0.006Z"/></clipPath><g clip-path="url(#_clip1)"><path id="path6588.-8" d="M24.177,11.049c-0.602,0.357 -1.27,0.618 -1.98,0.757c-0.568,-0.605 -1.378,-0.984 -2.275,-0.984c-1.721,0 -3.117,1.396 -3.117,3.116c0,0.244 0.028,0.482 0.081,0.71c-2.591,-0.129 -4.887,-1.37 -6.424,-3.255c-0.268,0.46 -0.422,0.995 -0.422,1.566c0,1.081 0.55,2.036 1.386,2.595c-0.51,-0.018 -0.991,-0.157 -1.412,-0.39l0,0.038c0,1.511 1.074,2.771 2.501,3.057c-0.262,0.072 -0.537,0.109 -0.822,0.109c-0.201,0 -0.396,-0.02 -0.586,-0.055c0.397,1.237 1.548,2.139 2.911,2.164c-1.067,0.836 -2.41,1.334 -3.871,1.334c-0.251,0 -0.499,-0.015 -0.743,-0.044c1.379,0.885 3.018,1.401 4.778,1.401c5.733,0 8.867,-4.749 8.867,-8.868c0,-0.135 -0.002,-0.269 -0.008,-0.403c0.608,-0.439 1.138,-0.988 1.555,-1.614c-0.559,0.248 -1.159,0.415 -1.79,0.49c0.643,-0.384 1.137,-0.996 1.371,-1.724" style="fill:#fff;fill-rule:nonzero;"/></g></svg>


